<?xml version="1.0" encoding="UTF-8"?>
<svg xmlns="http://www.w3.org/2000/svg" xmlns:xlink="http://www.w3.org/1999/xlink" width="481.8898pt" height="170.0787pt" viewBox="0 0 481.8898 170.0787" version="1.1">
    <g id="surface1">
        <path style=" stroke:none;fill-rule:evenodd;fill:rgb(95.68634%,85.098267%,83.529663%);fill-opacity:1;" d="M 254.222656 96.804688 L 310.808594 95.058594 C 336.070313 94.609375 359.601563 94.128906 385.320313 93.929688 C 404.472656 93.777344 440.011719 96.660156 450.746094 84.640625 C 437.21875 82.625 390.136719 82.378906 359.808594 81.953125 C 356.691406 79.195313 417.261719 79.941406 427.050781 79.628906 C 440.542969 78.941406 450.644531 80.6875 457.28125 79.453125 C 458.796875 79.171875 465.335938 73.765625 465.445313 73.023438 C 466.304688 67.210938 466.949219 59.757813 466.589844 50.933594 C 453.882813 42.144531 450.628906 52.566406 446.433594 47.171875 C 445.449219 45.398438 446.410156 41.207031 446.703125 39.277344 L 377.078125 39.457031 C 391.273438 37.867188 436.9375 37.269531 447.484375 35.792969 C 449.734375 17.851563 412.441406 30.117188 387.40625 29.046875 C 363.082031 27.40625 334.671875 27.027344 310.316406 27.042969 C 305.910156 26.816406 298.332031 26.910156 290.59375 26.382813 C 268.066406 24.84375 245.523438 23.058594 220.445313 24.210938 L 176.292969 25.882813 C 152.617188 27.878906 112.914063 27.632813 89.035156 27.628906 C 73.875 27.625 43.917969 26.289063 28.445313 32.199219 C 25.746094 33.230469 23.488281 34.484375 21.828125 36 L 20.582031 53.941406 C 27.742188 60 32.148438 62.402344 41.25 65.246094 C 47.371094 67.160156 47.035156 66.527344 47.0625 72.78125 C 45.664063 72.941406 24.214844 69.039063 26.070313 83.257813 C 26.421875 85.96875 26.339844 89.53125 26.777344 94.128906 C 33.359375 94.128906 45.9375 94.933594 51.738281 95.605469 C 67.382813 97.84375 74.625 101.164063 92.167969 100.375 C 103.976563 100.3125 115.832031 100.285156 127.636719 100.101563 C 133.542969 100.011719 139.464844 99.867188 145.371094 99.742188 C 148.1875 99.683594 150.929688 99.597656 153.738281 99.472656 C 163.703125 99.042969 174.042969 99.296875 183.632813 98.695313 C 191.910156 98.171875 203.324219 97.703125 209.808594 98.9375 C 210.003906 98.972656 215.738281 98.144531 223.703125 97.761719 C 235.421875 97.203125 253.960938 96.738281 254.222656 96.804688 "/>
        <path style=" stroke:none;fill-rule:nonzero;fill:rgb(10.195923%,10.195923%,9.411621%);fill-opacity:1;" d="M 284.796875 136.167969 L 286.058594 136.167969 L 286.058594 147.011719 L 284.796875 147.011719 Z M 285.664063 146.011719 L 292.976563 146.011719 L 292.976563 147.011719 L 285.664063 147.011719 Z M 285.664063 141.125 L 292.011719 141.125 L 292.011719 142.128906 L 285.664063 142.128906 Z M 285.664063 136.167969 L 292.976563 136.167969 L 292.976563 137.167969 L 285.664063 137.167969 Z M 303.042969 147.121094 C 302.160156 147.121094 301.386719 146.957031 300.71875 146.625 C 300.050781 146.289063 299.617188 145.757813 299.167969 145.207031 C 297.972656 143.742188 298.117188 139.289063 299.167969 137.980469 C 299.613281 137.425781 300.050781 136.898438 300.71875 136.5625 C 301.386719 136.226563 302.160156 136.058594 303.042969 136.058594 C 303.769531 136.058594 304.441406 136.183594 305.054688 136.4375 C 305.664063 136.691406 306.175781 137.050781 306.585938 137.515625 C 307 137.980469 307.277344 138.519531 307.421875 139.128906 L 306.164063 139.128906 C 306.023438 138.722656 305.792969 138.363281 305.476563 138.050781 C 305.15625 137.734375 304.789063 137.492188 304.359375 137.316406 C 303.9375 137.144531 303.496094 137.058594 303.042969 137.058594 C 302.410156 137.058594 301.855469 137.183594 301.378906 137.4375 C 300.902344 137.691406 300.609375 138.101563 300.269531 138.507813 C 299.472656 139.464844 299.304688 143.484375 300.269531 144.679688 C 300.601563 145.089844 300.902344 145.496094 301.378906 145.746094 C 301.855469 145.996094 302.410156 146.121094 303.042969 146.121094 C 303.496094 146.121094 303.9375 146.042969 304.359375 145.878906 C 304.789063 145.710938 305.15625 145.472656 305.476563 145.160156 C 305.792969 144.847656 306.023438 144.480469 306.164063 144.050781 L 307.421875 144.050781 C 307.277344 144.660156 306.996094 145.203125 306.582031 145.664063 C 306.167969 146.128906 305.65625 146.488281 305.042969 146.742188 C 304.433594 146.996094 303.765625 147.121094 303.042969 147.121094 Z M 318.46875 147.121094 C 317.519531 147.121094 316.714844 146.964844 316.046875 146.652344 C 315.378906 146.339844 314.867188 145.886719 314.515625 145.289063 C 314.167969 144.691406 313.996094 143.972656 313.996094 143.128906 L 313.996094 140.054688 C 313.996094 139.210938 314.167969 138.488281 314.515625 137.894531 C 314.867188 137.296875 315.378906 136.839844 316.046875 136.527344 C 316.714844 136.214844 317.519531 136.058594 318.46875 136.058594 C 319.414063 136.058594 320.21875 136.214844 320.890625 136.527344 C 321.554688 136.839844 322.066406 137.296875 322.417969 137.894531 C 322.765625 138.488281 322.941406 139.210938 322.941406 140.054688 L 322.941406 143.128906 C 322.941406 143.972656 322.765625 144.691406 322.417969 145.289063 C 322.066406 145.886719 321.554688 146.339844 320.890625 146.652344 C 320.21875 146.964844 319.414063 147.121094 318.46875 147.121094 Z M 318.46875 146.121094 C 319.144531 146.121094 319.722656 146.007813 320.207031 145.777344 C 320.6875 145.542969 321.054688 145.207031 321.304688 144.769531 C 321.554688 144.332031 321.683594 143.800781 321.683594 143.179688 L 321.683594 140.003906 C 321.683594 139.382813 321.554688 138.847656 321.304688 138.410156 C 321.054688 137.972656 320.6875 137.636719 320.207031 137.40625 C 319.722656 137.171875 319.144531 137.058594 318.46875 137.058594 C 317.789063 137.058594 317.210938 137.171875 316.730469 137.40625 C 316.25 137.636719 315.878906 137.972656 315.628906 138.410156 C 315.378906 138.847656 315.253906 139.382813 315.253906 140.003906 L 315.253906 143.179688 C 315.253906 143.800781 315.378906 144.332031 315.628906 144.769531 C 315.878906 145.207031 316.25 145.542969 316.730469 145.777344 C 317.210938 146.007813 317.789063 146.121094 318.46875 146.121094 Z M 265.917969 142.386719 L 265.917969 146.835938 L 264.699219 146.835938 L 264.699219 142.386719 L 260.6875 135.886719 L 262.019531 135.886719 L 265.308594 141.351563 L 268.597656 135.886719 L 269.925781 135.886719 Z M 246.773438 136.128906 L 255.476563 136.128906 L 255.476563 137.136719 L 246.773438 137.136719 Z M 250.273438 136.332031 L 251.496094 136.332031 L 251.496094 146.835938 L 250.273438 146.835938 Z M 233.035156 136.09375 L 241.734375 136.09375 L 241.734375 137.15625 L 233.035156 137.15625 Z M 236.773438 136.332031 L 237.992188 136.332031 L 237.992188 146.835938 L 236.773438 146.835938 Z M 220.972656 136.179688 L 227.433594 136.179688 L 227.433594 137.164063 L 220.972656 137.164063 Z M 220.972656 141.054688 L 226.582031 141.054688 L 226.582031 142.035156 L 220.972656 142.035156 Z M 220.972656 145.851563 L 227.433594 145.851563 L 227.433594 146.835938 L 220.972656 146.835938 Z M 220.207031 136.179688 L 221.320313 136.179688 L 221.320313 146.835938 L 220.207031 146.835938 Z M 209.945313 141.878906 L 211.046875 141.539063 L 214.128906 146.773438 L 212.703125 146.773438 Z M 205.347656 135.984375 L 206.542969 135.984375 L 206.542969 146.773438 L 205.347656 146.773438 Z M 206.085938 141.222656 L 210.195313 141.222656 C 210.640625 141.222656 211.035156 141.132813 211.375 140.957031 C 211.714844 140.78125 211.976563 140.53125 212.160156 140.210938 C 212.34375 139.890625 212.441406 139.519531 212.449219 139.101563 C 212.449219 138.679688 212.355469 138.308594 212.167969 137.984375 C 211.988281 137.664063 211.722656 137.417969 211.382813 137.242188 C 211.042969 137.066406 210.644531 136.980469 210.195313 136.980469 L 206.085938 136.980469 L 206.085938 135.984375 L 210.128906 135.984375 C 210.824219 135.984375 211.433594 136.113281 211.964844 136.371094 C 212.488281 136.628906 212.898438 136.992188 213.1875 137.464844 C 213.480469 137.9375 213.625 138.484375 213.625 139.101563 C 213.625 139.71875 213.480469 140.261719 213.1875 140.734375 C 212.898438 141.207031 212.488281 141.570313 211.957031 141.828125 C 211.429688 142.082031 210.820313 142.214844 210.128906 142.214844 L 206.085938 142.214844 Z M 191.164063 135.886719 L 192.386719 135.886719 L 192.386719 146.835938 L 191.164063 146.835938 Z M 192.054688 141.578125 L 196 141.578125 C 196.480469 141.578125 196.902344 141.480469 197.273438 141.285156 C 197.640625 141.089844 197.921875 140.816406 198.125 140.464844 C 198.324219 140.113281 198.421875 139.707031 198.421875 139.246094 C 198.421875 138.777344 198.324219 138.371094 198.125 138.015625 C 197.921875 137.660156 197.640625 137.386719 197.273438 137.191406 C 196.902344 136.996094 196.480469 136.898438 196 136.898438 L 192.054688 136.898438 L 192.054688 135.886719 L 195.941406 135.886719 C 196.675781 135.886719 197.320313 136.023438 197.882813 136.304688 C 198.441406 136.582031 198.875 136.976563 199.183594 137.484375 C 199.492188 137.992188 199.644531 138.578125 199.644531 139.246094 C 199.644531 139.910156 199.492188 140.492188 199.183594 140.996094 C 198.875 141.5 198.441406 141.894531 197.882813 142.171875 C 197.320313 142.449219 196.675781 142.589844 195.941406 142.589844 L 192.054688 142.589844 Z M 169.746094 135.96875 L 176.894531 135.96875 L 176.894531 136.976563 L 169.746094 136.976563 Z M 169.746094 140.957031 L 175.953125 140.957031 L 175.953125 141.964844 L 169.746094 141.964844 Z M 169.746094 145.875 L 176.894531 145.875 L 176.894531 146.882813 L 169.746094 146.882813 Z M 168.898438 135.96875 L 170.128906 135.96875 L 170.128906 146.882813 L 168.898438 146.882813 Z M 153.652344 135.96875 L 154.886719 135.96875 L 154.886719 146.882813 L 153.652344 146.882813 Z M 154.835938 145.875 L 157.65625 145.875 C 158.804688 145.875 159.667969 145.640625 160.242188 145.167969 C 160.816406 144.695313 161.101563 143.980469 161.101563 143.03125 L 161.101563 139.820313 C 161.101563 138.867188 160.816406 138.15625 160.242188 137.683594 C 159.667969 137.210938 158.804688 136.976563 157.65625 136.976563 L 154.835938 136.976563 L 154.835938 135.96875 L 157.601563 135.96875 C 158.65625 135.96875 159.535156 136.113281 160.238281 136.402344 C 160.941406 136.6875 161.464844 137.121094 161.8125 137.703125 C 162.164063 138.285156 162.335938 139.007813 162.335938 139.878906 L 162.335938 142.972656 C 162.335938 143.839844 162.160156 144.566406 161.808594 145.144531 C 161.460938 145.71875 160.933594 146.15625 160.230469 146.445313 C 159.527344 146.734375 158.648438 146.882813 157.59375 146.882813 L 154.835938 146.882813 Z M 139.3125 143.226563 L 145.859375 143.226563 L 145.859375 144.234375 L 139.3125 144.234375 Z M 141.785156 135.96875 L 143.273438 135.96875 L 147.863281 146.882813 L 146.492188 146.882813 L 142.527344 137.105469 L 138.566406 146.882813 L 137.195313 146.882813 Z M 130.285156 135.96875 L 131.574219 135.96875 L 131.574219 146.882813 L 130.34375 146.882813 L 130.34375 137.507813 L 130.472656 137.988281 L 126.722656 145.363281 L 125.851563 145.363281 L 122.097656 138.136719 L 122.226563 137.507813 L 122.226563 146.882813 L 120.992188 146.882813 L 120.992188 135.96875 L 122.289063 135.96875 L 126.285156 143.847656 Z M 105.75 135.96875 L 106.984375 135.96875 L 106.984375 146.882813 L 105.75 146.882813 Z M 106.933594 145.875 L 109.75 145.875 C 110.902344 145.875 111.765625 145.640625 112.339844 145.167969 C 112.914063 144.695313 113.199219 143.980469 113.199219 143.03125 L 113.199219 139.820313 C 113.199219 138.867188 112.914063 138.15625 112.339844 137.683594 C 111.765625 137.210938 110.902344 136.976563 109.75 136.976563 L 106.933594 136.976563 L 106.933594 135.96875 L 109.699219 135.96875 C 110.753906 135.96875 111.632813 136.113281 112.335938 136.402344 C 113.039063 136.6875 113.5625 137.121094 113.910156 137.703125 C 114.257813 138.285156 114.433594 139.007813 114.433594 139.878906 L 114.433594 142.972656 C 114.433594 143.839844 114.257813 144.566406 113.90625 145.144531 C 113.554688 145.71875 113.03125 146.15625 112.324219 146.445313 C 111.625 146.734375 110.746094 146.882813 109.6875 146.882813 L 106.933594 146.882813 Z M 89.566406 135.96875 L 90.808594 135.96875 L 98.035156 145.800781 L 97.527344 145.5 L 97.527344 135.96875 L 98.761719 135.96875 L 98.761719 146.875 L 97.503906 146.875 L 90.132813 136.96875 L 90.800781 137.394531 L 90.800781 146.875 L 89.566406 146.875 Z M 75.222656 143.226563 L 81.773438 143.226563 L 81.773438 144.234375 L 75.222656 144.234375 Z M 77.699219 135.96875 L 79.1875 135.96875 L 83.777344 146.882813 L 82.40625 146.882813 L 78.441406 137.105469 L 74.476563 146.882813 L 73.109375 146.882813 Z M 59.5 140.96875 L 66.921875 140.96875 L 66.921875 142.011719 L 59.5 142.011719 Z M 58.667969 135.96875 L 59.902344 135.96875 L 59.902344 146.882813 L 58.667969 146.882813 Z M 66.253906 135.96875 L 67.488281 135.96875 L 67.488281 146.882813 L 66.253906 146.882813 Z M 340.605469 136.894531 L 341.597656 136.894531 L 341.597656 146.492188 L 340.605469 146.492188 Z M 337.570313 136.488281 L 344.632813 136.488281 L 344.632813 137.410156 L 337.570313 137.410156 Z M 358.234375 136.488281 L 359.222656 136.488281 L 359.222656 146.492188 L 358.234375 146.492188 Z M 352.136719 136.488281 L 353.128906 136.488281 L 353.128906 146.492188 L 352.136719 146.492188 Z M 352.804688 141.070313 L 358.769531 141.070313 L 358.769531 142.027344 L 352.804688 142.027344 Z M 369.027344 146.492188 L 368.035156 146.492188 L 368.035156 136.488281 L 369.027344 136.488281 Z M 377.835938 136.488281 L 378.835938 136.488281 L 384.640625 145.503906 L 384.234375 145.226563 L 384.234375 136.488281 L 385.226563 136.488281 L 385.226563 146.484375 L 384.214844 146.484375 L 378.292969 137.40625 L 378.828125 137.796875 L 378.828125 146.484375 L 377.835938 146.484375 Z M 400.703125 146.734375 C 400.703125 146.734375 399.8125 146.726563 399.597656 146.726563 C 399.589844 146.726563 399.644531 145.683594 399.59375 145.75 C 399.179688 146.285156 397.980469 146.722656 397.308594 146.714844 C 390.042969 146.632813 391.011719 136.0625 397.128906 136.386719 C 397.773438 136.417969 398.332031 136.496094 398.800781 136.71875 C 399.269531 136.9375 399.652344 137.265625 399.949219 137.703125 C 400.246094 138.140625 400.460938 138.695313 400.585938 139.359375 L 399.515625 139.359375 C 399.398438 138.902344 399.230469 138.519531 399.015625 138.21875 C 398.800781 137.914063 398.539063 137.6875 398.222656 137.535156 C 397.910156 137.382813 397.539063 137.359375 397.128906 137.308594 C 392.964844 136.785156 391.171875 145.339844 397.167969 145.671875 C 397.722656 145.703125 398.179688 145.574219 398.542969 145.378906 C 398.902344 145.179688 399.171875 144.878906 399.351563 144.464844 C 399.535156 144.050781 399.625 143.519531 399.625 142.875 L 399.625 142.304688 L 397.203125 142.304688 L 397.203125 141.378906 L 400.703125 141.390625 L 400.703125 142.863281 C 400.703125 143.695313 400.71875 146.152344 400.703125 146.734375 Z M 411.804688 146.597656 C 411.320313 146.597656 410.863281 146.550781 410.433594 146.457031 C 410 146.367188 409.601563 146.230469 409.222656 146.046875 C 408.851563 145.863281 408.5 145.632813 408.175781 145.359375 L 408.777344 144.574219 C 409.191406 144.941406 409.652344 145.214844 410.15625 145.398438 C 410.660156 145.582031 411.210938 145.671875 411.804688 145.671875 C 412.660156 145.671875 413.324219 145.503906 413.792969 145.167969 C 414.265625 144.824219 414.5 144.347656 414.5 143.734375 L 414.5 143.726563 C 414.5 143.347656 414.398438 143.039063 414.195313 142.8125 C 413.988281 142.582031 413.722656 142.410156 413.402344 142.296875 C 413.078125 142.179688 412.664063 142.074219 412.152344 141.980469 C 412.140625 141.972656 412.125 141.972656 412.109375 141.96875 C 412.089844 141.96875 412.074219 141.964844 412.054688 141.957031 L 411.855469 141.917969 C 411.15625 141.785156 410.59375 141.644531 410.171875 141.5 C 409.75 141.355469 409.390625 141.113281 409.09375 140.765625 C 408.800781 140.421875 408.652344 139.9375 408.652344 139.324219 L 408.652344 139.316406 C 408.652344 138.699219 408.789063 138.171875 409.066406 137.730469 C 409.34375 137.292969 409.75 136.957031 410.28125 136.730469 C 410.8125 136.5 411.453125 136.386719 412.203125 136.386719 C 412.554688 136.386719 412.90625 136.425781 413.25 136.503906 C 413.597656 136.582031 413.9375 136.699219 414.277344 136.851563 C 414.613281 137.003906 414.949219 137.199219 415.277344 137.433594 L 414.691406 138.210938 C 414.261719 137.90625 413.839844 137.683594 413.425781 137.53125 C 413.011719 137.382813 412.605469 137.308594 412.203125 137.308594 C 411.386719 137.308594 410.75 137.480469 410.300781 137.824219 C 409.855469 138.167969 409.628906 138.652344 409.628906 139.277344 L 409.628906 139.285156 C 409.628906 139.660156 409.742188 139.957031 409.964844 140.171875 C 410.191406 140.390625 410.46875 140.554688 410.800781 140.660156 C 411.132813 140.765625 411.589844 140.875 412.167969 140.988281 C 412.1875 140.992188 412.203125 141 412.226563 141.003906 C 412.246094 141.007813 412.269531 141.011719 412.292969 141.015625 C 412.316406 141.019531 412.34375 141.027344 412.367188 141.03125 C 412.394531 141.039063 412.421875 141.046875 412.449219 141.050781 C 413.078125 141.179688 413.601563 141.328125 414.019531 141.492188 C 414.4375 141.65625 414.78125 141.914063 415.058594 142.265625 C 415.335938 142.617188 415.476563 143.089844 415.476563 143.6875 L 415.476563 143.699219 C 415.476563 144.308594 415.332031 144.832031 415.042969 145.265625 C 414.753906 145.699219 414.335938 146.027344 413.789063 146.257813 C 413.238281 146.484375 412.578125 146.597656 411.804688 146.597656 "/>
        <path style=" stroke:none;fill-rule:nonzero;fill:rgb(10.195923%,10.195923%,9.411621%);fill-opacity:1;" d="M 247.707031 51.53125 L 247.707031 65.5625 C 247.707031 66.976563 247.828125 67.847656 248.074219 68.167969 C 248.316406 68.488281 248.835938 68.652344 249.628906 68.652344 L 249.988281 68.652344 L 249.988281 69.542969 C 249.484375 69.496094 249.011719 69.464844 248.566406 69.441406 C 248.125 69.417969 247.695313 69.410156 247.289063 69.410156 C 246.882813 69.410156 246.453125 69.417969 246.007813 69.441406 C 245.554688 69.464844 245.078125 69.496094 244.5625 69.542969 L 244.5625 68.652344 L 244.710938 68.652344 C 245.570313 68.652344 246.136719 68.496094 246.402344 68.1875 C 246.667969 67.878906 246.800781 67.011719 246.800781 65.589844 L 246.800781 52.699219 C 246.800781 51.707031 246.683594 51.078125 246.453125 50.824219 C 246.21875 50.566406 245.695313 50.441406 244.875 50.441406 L 244.445313 50.441406 L 244.445313 49.523438 C 244.820313 49.558594 245.207031 49.585938 245.609375 49.605469 C 246.007813 49.625 246.425781 49.632813 246.867188 49.632813 C 247.332031 49.632813 247.757813 49.625 248.140625 49.605469 C 248.523438 49.585938 248.890625 49.558594 249.234375 49.523438 L 259.167969 64.703125 L 259.167969 53.53125 C 259.167969 52.132813 259.046875 51.269531 258.796875 50.941406 C 258.546875 50.609375 258.027344 50.441406 257.234375 50.441406 L 256.859375 50.441406 L 256.859375 49.523438 C 257.285156 49.558594 257.714844 49.585938 258.15625 49.605469 C 258.59375 49.625 259.0625 49.632813 259.5625 49.632813 C 260.0625 49.632813 260.527344 49.625 260.941406 49.605469 C 261.363281 49.585938 261.761719 49.558594 262.136719 49.523438 L 262.136719 50.441406 C 261.28125 50.460938 260.726563 50.617188 260.464844 50.921875 C 260.207031 51.21875 260.074219 52.082031 260.074219 53.503906 L 260.074219 69.542969 L 259.488281 69.542969 Z M 247.707031 51.53125 "/>
        <path style=" stroke:none;fill-rule:nonzero;fill:rgb(10.195923%,10.195923%,9.411621%);fill-opacity:1;" d="M 211.554688 69.332031 L 211.539063 68.566406 L 211.773438 68.566406 C 212.277344 68.566406 212.664063 68.480469 212.921875 68.304688 C 213.179688 68.132813 213.421875 67.785156 213.636719 67.265625 L 220.210938 52.003906 L 220.796875 52.003906 L 227.226563 67.265625 C 227.445313 67.777344 227.6875 68.125 227.945313 68.300781 C 228.210938 68.480469 228.597656 68.566406 229.101563 68.566406 L 229.320313 68.566406 L 229.320313 69.332031 C 228.675781 69.292969 228.074219 69.265625 227.511719 69.242188 C 226.949219 69.222656 226.410156 69.214844 225.894531 69.214844 C 225.375 69.214844 224.832031 69.222656 224.257813 69.242188 C 223.683594 69.265625 223.070313 69.292969 222.429688 69.332031 L 222.414063 68.566406 L 222.550781 68.566406 C 223.15625 68.566406 223.601563 68.488281 223.882813 68.332031 C 224.164063 68.171875 224.304688 67.917969 224.304688 67.566406 C 224.304688 67.445313 224.300781 67.328125 224.285156 67.222656 C 224.273438 67.117188 224.25 67.027344 224.21875 66.953125 L 222.671875 62.992188 L 216.59375 62.992188 L 215.503906 65.589844 C 215.261719 66.183594 215.105469 66.609375 215.03125 66.863281 C 214.957031 67.113281 214.917969 67.332031 214.917969 67.519531 C 214.917969 67.902344 215.03125 68.164063 215.253906 68.3125 C 215.476563 68.460938 215.886719 68.546875 216.480469 68.582031 L 216.464844 69.332031 C 216.011719 69.292969 215.578125 69.265625 215.164063 69.242188 C 214.753906 69.222656 214.367188 69.214844 214.003906 69.214844 C 213.625 69.214844 213.234375 69.222656 212.835938 69.242188 C 212.4375 69.265625 212.007813 69.292969 211.554688 69.332031 Z M 216.839844 62.207031 L 222.332031 62.207031 L 219.679688 55.484375 Z M 216.839844 62.207031 "/>
        <path style=" stroke:none;fill-rule:nonzero;fill:rgb(10.195923%,10.195923%,9.411621%);fill-opacity:1;" d="M 185.273438 59.839844 C 186.089844 59.355469 186.9375 58.644531 187.804688 57.691406 C 188.679688 56.746094 189.832031 55.25 191.265625 53.207031 C 191.691406 52.597656 192 52.121094 192.183594 51.769531 C 192.371094 51.417969 192.464844 51.152344 192.464844 50.972656 C 192.464844 50.726563 192.378906 50.558594 192.207031 50.46875 C 192.03125 50.378906 191.621094 50.320313 190.96875 50.304688 L 190.96875 49.523438 C 191.414063 49.558594 191.875 49.585938 192.355469 49.605469 C 192.835938 49.625 193.359375 49.632813 193.921875 49.632813 C 194.476563 49.632813 194.996094 49.625 195.476563 49.605469 C 195.957031 49.585938 196.417969 49.558594 196.851563 49.523438 L 196.851563 50.289063 C 196.25 50.328125 195.78125 50.40625 195.441406 50.519531 C 195.101563 50.640625 194.792969 50.828125 194.507813 51.078125 C 194.316406 51.246094 193.554688 52.144531 192.222656 53.78125 C 190.882813 55.414063 189.589844 56.933594 188.335938 58.34375 L 194.726563 66.964844 C 195.164063 67.554688 195.609375 67.980469 196.074219 68.253906 C 196.539063 68.515625 197.054688 68.652344 197.628906 68.652344 L 197.710938 68.652344 L 197.710938 69.542969 C 197.09375 69.496094 196.507813 69.464844 195.945313 69.441406 C 195.386719 69.417969 194.851563 69.410156 194.347656 69.410156 C 193.824219 69.410156 193.289063 69.417969 192.738281 69.441406 C 192.183594 69.464844 191.59375 69.496094 190.96875 69.542969 L 190.96875 68.652344 C 191.367188 68.652344 191.660156 68.601563 191.851563 68.492188 C 192.039063 68.390625 192.136719 68.230469 192.136719 68.011719 C 192.136719 67.792969 191.996094 67.496094 191.699219 67.113281 L 191.6875 67.097656 L 186.609375 59.988281 L 185.273438 60.953125 L 185.273438 66.378906 C 185.273438 67.382813 185.402344 68.015625 185.660156 68.269531 C 185.917969 68.527344 186.480469 68.652344 187.339844 68.652344 L 187.53125 68.652344 L 187.53125 69.542969 C 186.894531 69.503906 186.292969 69.46875 185.714844 69.445313 C 185.140625 69.421875 184.582031 69.410156 184.046875 69.410156 C 183.507813 69.410156 182.949219 69.417969 182.367188 69.441406 C 181.789063 69.464844 181.148438 69.496094 180.449219 69.542969 L 180.449219 68.652344 L 180.640625 68.652344 C 181.5 68.652344 182.0625 68.527344 182.324219 68.269531 C 182.578125 68.015625 182.707031 67.382813 182.707031 66.378906 L 182.707031 52.699219 C 182.707031 51.6875 182.582031 51.054688 182.328125 50.808594 C 182.070313 50.5625 181.507813 50.441406 180.640625 50.441406 L 180.449219 50.441406 L 180.449219 49.523438 C 180.972656 49.558594 181.527344 49.585938 182.105469 49.605469 C 182.679688 49.625 183.296875 49.632813 183.960938 49.632813 C 184.628906 49.632813 185.253906 49.625 185.84375 49.605469 C 186.433594 49.585938 186.996094 49.558594 187.53125 49.523438 L 187.53125 50.441406 L 187.339844 50.441406 C 186.472656 50.441406 185.910156 50.574219 185.65625 50.832031 C 185.398438 51.089844 185.273438 51.714844 185.273438 52.699219 Z M 185.273438 59.839844 "/>
        <path style=" stroke:none;fill-rule:evenodd;fill:rgb(10.195923%,10.195923%,9.411621%);fill-opacity:1;" d="M 174.734375 74.769531 C 174.75 78.789063 174.777344 82.839844 174.824219 86.847656 C 174.875 90.855469 174.246094 98.886719 176.9375 101.492188 C 179.480469 103.960938 184.527344 103.929688 185.957031 103.949219 L 185.949219 107.027344 L 168.808594 106.878906 L 151.578125 107.023438 L 151.570313 103.945313 C 153.324219 103.929688 158.171875 103.960938 160.714844 101.492188 C 163.402344 98.886719 162.773438 90.855469 162.824219 86.847656 C 162.867188 83.164063 162.96875 78.667969 162.984375 74.949219 C 162.984375 74.902344 162.984375 74.761719 163.03125 74.761719 C 163.4375 74.773438 174.617188 74.800781 174.734375 74.769531 Z M 174.839844 39.34375 C 174.839844 39.316406 162.808594 39.347656 162.808594 39.320313 C 162.808594 39.292969 162.808594 39.265625 162.808594 39.238281 C 162.792969 35.214844 162.785156 30.914063 162.789063 26.921875 C 162.792969 21.945313 163.085938 17.601563 157.675781 15.390625 C 156.234375 14.800781 153.792969 15.179688 151.507813 15.039063 L 151.507813 13.160156 L 186 13.160156 L 186 15.039063 C 183.714844 15.179688 181.414063 14.800781 179.972656 15.390625 C 174.5625 17.597656 174.855469 21.941406 174.863281 26.921875 C 174.867188 30.96875 174.855469 35.273438 174.839844 39.34375 "/>
        <path style=" stroke:none;fill-rule:nonzero;fill:rgb(10.195923%,10.195923%,9.411621%);fill-opacity:1;" d="M 277.609375 69.332031 L 277.59375 68.566406 L 277.828125 68.566406 C 278.332031 68.566406 278.71875 68.480469 278.976563 68.304688 C 279.234375 68.132813 279.472656 67.785156 279.691406 67.265625 L 286.265625 52.003906 L 286.847656 52.003906 L 293.28125 67.265625 C 293.5 67.777344 293.742188 68.125 294 68.300781 C 294.265625 68.480469 294.652344 68.566406 295.15625 68.566406 L 295.375 68.566406 L 295.375 69.332031 C 294.730469 69.292969 294.125 69.265625 293.566406 69.242188 C 293.003906 69.222656 292.464844 69.214844 291.949219 69.214844 C 291.429688 69.214844 290.886719 69.222656 290.3125 69.242188 C 289.734375 69.265625 289.125 69.292969 288.484375 69.332031 L 288.46875 68.566406 L 288.601563 68.566406 C 289.210938 68.566406 289.65625 68.488281 289.933594 68.332031 C 290.21875 68.171875 290.359375 67.917969 290.359375 67.566406 C 290.359375 67.445313 290.351563 67.328125 290.339844 67.222656 C 290.324219 67.117188 290.300781 67.027344 290.273438 66.953125 L 288.722656 62.992188 L 282.648438 62.992188 L 281.558594 65.589844 C 281.316406 66.183594 281.160156 66.609375 281.085938 66.863281 C 281.011719 67.113281 280.972656 67.332031 280.972656 67.519531 C 280.972656 67.902344 281.085938 68.164063 281.308594 68.3125 C 281.53125 68.460938 281.9375 68.546875 282.53125 68.582031 L 282.519531 69.332031 C 282.0625 69.292969 281.632813 69.265625 281.21875 69.242188 C 280.804688 69.222656 280.421875 69.214844 280.058594 69.214844 C 279.679688 69.214844 279.289063 69.222656 278.890625 69.242188 C 278.492188 69.265625 278.0625 69.292969 277.609375 69.332031 Z M 282.894531 62.207031 L 288.386719 62.207031 L 285.734375 55.484375 Z M 282.894531 62.207031 "/>
        <path style=" stroke:none;fill-rule:evenodd;fill:rgb(100%,100%,100%);fill-opacity:1;" d="M 206.175781 93.917969 C 210.5 92.460938 241.03125 90.820313 250.019531 90.652344 C 250.089844 90.652344 250.578125 90.710938 251.410156 90.664063 C 261.597656 90.070313 290.441406 90.253906 298.347656 91.378906 C 298.75 91.433594 300.097656 93.433594 300.386719 93.496094 L 245.714844 94.449219 L 205.894531 95.671875 L 199.917969 95.199219 Z M 298.625 91.46875 C 299.476563 91.652344 300.429688 93.457031 300.386719 93.496094 "/>
        <path style=" stroke:none;fill-rule:evenodd;fill:rgb(10.195923%,10.195923%,9.411621%);fill-opacity:1;" d="M 201.0625 39.296875 L 197.511719 39.3125 L 203.84375 31.738281 C 206.359375 28.726563 208.277344 25.894531 208.9375 24.855469 C 209.601563 23.808594 209.9375 22.671875 209.9375 21.414063 C 209.9375 19.136719 208.914063 17.429688 206.867188 16.265625 C 205.800781 15.695313 203.996094 15.292969 201.492188 15.007813 L 201.492188 13.1875 L 228.757813 13.1875 L 228.757813 15.007813 C 226.882813 15.199219 225.566406 15.539063 224.304688 16.027344 C 223.066406 16.507813 221.691406 17.332031 220.191406 18.496094 C 218.535156 19.777344 215.410156 22.308594 211.636719 26.777344 Z M 206.117188 74.8125 C 212.257813 83.289063 222.882813 102.367188 233.886719 103.933594 L 233.910156 107.007813 L 203.566406 106.972656 L 203.578125 103.996094 C 213.140625 103.765625 210.351563 101.019531 206.148438 94.09375 C 205.300781 92.695313 203.699219 90.292969 201.359375 86.855469 C 199.019531 83.410156 196.945313 80.699219 195.417969 78.503906 L 192.804688 74.742188 Z M 206.117188 74.8125 "/>
        <path style=" stroke:none;fill-rule:evenodd;fill:rgb(10.195923%,10.195923%,9.411621%);fill-opacity:1;" d="M 251.347656 74.476563 L 249.351563 74.476563 L 249.425781 84.789063 C 249.460938 89.578125 249.410156 94.933594 249.121094 97.238281 C 248.40625 102.902344 243.867188 103.957031 239.152344 104.050781 L 239.152344 107.03125 L 265.132813 107.03125 L 265.132813 104.050781 C 259.757813 103.902344 254.601563 102.902344 253.789063 97.238281 C 253.457031 94.933594 253.402344 89.578125 253.441406 84.789063 L 253.523438 74.476563 Z M 251.347656 74.476563 "/>
        <path style=" stroke:none;fill-rule:evenodd;fill:rgb(10.195923%,10.195923%,9.411621%);fill-opacity:1;" d="M 312.328125 39.203125 C 311.886719 39.183594 309.578125 39.242188 309.019531 39.179688 C 308.988281 39.175781 309.019531 39.113281 309.019531 39.082031 C 308.945313 31.039063 308.753906 23.230469 308.226563 21.035156 C 307.679688 18.757813 305.277344 17.277344 302.421875 16.125 C 300.910156 15.515625 298.929688 15.375 296.515625 15.234375 L 296.542969 12.988281 L 323.597656 13.136719 L 323.582031 15.15625 C 319.335938 15.15625 316.78125 15.660156 314.398438 18.347656 C 311.589844 21.519531 312.285156 31.046875 312.304688 34.984375 Z M 265.078125 39.316406 L 253.09375 21.941406 L 253.074219 39.152344 C 252.46875 39.195313 251.277344 39.191406 249.980469 39.160156 C 249.957031 39.160156 249.988281 38.160156 249.988281 38.054688 C 250.007813 33.449219 249.902344 25.121094 249.640625 21.824219 C 249.394531 18.746094 247.679688 17.101563 245.101563 16.003906 C 243.601563 15.363281 241.613281 15.476563 239.152344 15.332031 L 239.136719 13.320313 L 262.386719 13.308594 L 279.707031 39.308594 Z M 287.671875 74.515625 L 302.332031 74.542969 L 308.902344 84.859375 L 308.894531 74.636719 L 312.425781 74.585938 L 312.234375 108.078125 L 311.816406 108.078125 L 308.816406 108.121094 Z M 287.671875 74.515625 "/>
    </g>
</svg>
